<?xml version="1.0" standalone="no"?>
<!DOCTYPE svg PUBLIC "-//W3C//DTD SVG 20010904//EN"
 "http://www.w3.org/TR/2001/REC-SVG-20010904/DTD/svg10.dtd">
<svg version="1.0" xmlns="http://www.w3.org/2000/svg"
 width="2048.000000pt" height="2048.000000pt" viewBox="0 0 2048.000000 2048.000000"
 preserveAspectRatio="xMidYMid meet">
<metadata>
Created by potrace 1.14, written by Peter Selinger 2001-2017
</metadata>
<g transform="translate(0.000000,2048.000000) scale(0.100000,-0.100000)"
fill="#000000" stroke="none">
<path d="M60 20415 l-65 -65 941 -943 c1534 -1538 2246 -2265 2979 -3047 466
-497 1075 -1171 1075 -1191 0 -5 -34 -46 -76 -91 -565 -612 -1058 -1403 -1371
-2203 -259 -661 -413 -1329 -477 -2075 -27 -303 -27 -817 0 -1120 64 -747 218
-1414 477 -2075 313 -800 806 -1591 1371 -2203 42 -45 76 -86 76 -91 0 -20
-609 -694 -1075 -1191 -733 -781 -1468 -1533 -2979 -3047 l-941 -943 68 -67
67 -68 943 941 c1514 1511 2266 2246 3047 2979 497 466 1171 1075 1191 1075 5
0 46 -34 91 -76 609 -562 1408 -1059 2203 -1371 661 -259 1328 -413 2075 -477
303 -27 817 -27 1120 0 747 64 1414 218 2075 477 458 180 973 449 1372 718
278 188 611 450 831 653 45 42 86 76 91 76 20 0 694 -609 1191 -1075 782 -733
1509 -1445 3047 -2979 l943 -941 67 68 68 67 -941 943 c-1534 1538 -2246 2265
-2979 3047 -466 497 -1075 1171 -1075 1191 0 5 34 46 76 91 565 612 1058 1403
1371 2203 232 592 395 1257 457 1865 23 226 25 259 37 523 9 229 2 591 -17
807 -64 747 -218 1414 -477 2075 -313 800 -806 1591 -1371 2203 -42 45 -76 86
-76 91 0 20 609 694 1075 1191 733 781 1467 1532 2984 3052 l936 938 -68 67
-67 68 -938 -936 c-1520 -1517 -2271 -2251 -3052 -2984 -497 -466 -1171 -1075
-1191 -1075 -5 0 -46 34 -91 76 -220 203 -557 467 -831 652 -775 522 -1669
893 -2588 1076 -263 52 -475 83 -755 111 -365 35 -902 39 -1224 9 -280 -26
-329 -31 -520 -60 -1047 -158 -2056 -550 -2927 -1136 -274 -185 -611 -449
-831 -652 -45 -42 -86 -76 -91 -76 -20 0 -694 609 -1191 1075 -759 712 -1993
1921 -3385 3314 -330 331 -602 601 -605 601 -3 0 -35 -29 -70 -65z m10635
-3089 c17 -3 68 -7 115 -10 655 -46 1412 -221 2050 -476 813 -325 1518 -768
2185 -1375 l50 -45 -37 -32 c-417 -372 -1156 -955 -1608 -1269 -1096 -763
-2030 -1159 -2893 -1227 -119 -9 -515 -9 -634 0 -862 68 -1801 466 -2893 1226
-447 311 -1196 903 -1608 1270 l-37 32 50 45 c661 601 1355 1040 2159 1364
578 234 1208 393 1816 460 102 12 205 23 230 26 25 3 119 8 210 11 91 4 167 9
170 12 6 5 629 -6 675 -12z m-5145 -2177 c1546 -1311 2676 -1989 3756 -2253
325 -79 581 -109 934 -109 353 0 609 30 934 109 1088 266 2237 959 3796 2287
l194 166 48 -45 c26 -24 68 -66 92 -92 l45 -48 -141 -164 c-1334 -1563 -2033
-2712 -2302 -3789 -47 -187 -75 -343 -102 -561 -24 -187 -24 -633 0 -820 71
-571 216 -1044 500 -1625 408 -834 1016 -1695 2032 -2875 12 -14 1 -28 -79
-108 l-92 -92 -195 167 c-1541 1314 -2689 2009 -3759 2277 -187 47 -343 75
-561 102 -188 24 -634 24 -820 1 -572 -72 -1044 -217 -1625 -501 -834 -408
-1693 -1015 -2875 -2032 -14 -12 -28 -1 -108 79 l-92 92 167 195 c909 1066
1490 1900 1879 2695 284 581 429 1054 500 1625 24 187 24 633 0 820 -27 218
-55 374 -102 561 -268 1070 -963 2218 -2277 3759 l-167 195 92 92 c80 80 94
91 108 79 8 -7 107 -91 220 -187z m-434 -116 c127 -145 399 -472 581 -699
1101 -1374 1675 -2445 1848 -3444 71 -414 71 -886 0 -1300 -173 -1001 -749
-2073 -1854 -3450 -174 -218 -489 -596 -599 -718 l-32 -37 -45 50 c-601 661
-1040 1355 -1364 2158 -248 614 -420 1322 -476 1962 -4 44 -9 89 -11 100 -23
126 -23 1044 0 1170 2 11 7 56 11 100 35 395 125 872 239 1271 296 1027 800
1945 1510 2748 71 80 132 146 135 146 4 0 29 -26 57 -57z m10440 -89 c546
-617 966 -1296 1273 -2057 286 -709 463 -1511 499 -2262 12 -263 5 -880 -12
-970 -2 -11 -7 -56 -11 -100 -56 -640 -228 -1348 -476 -1962 -324 -803 -763
-1497 -1364 -2158 l-45 -50 -32 37 c-110 122 -425 500 -599 718 -1105 1377
-1681 2449 -1854 3450 -71 414 -71 886 0 1300 174 1005 750 2076 1866 3465
243 303 607 735 618 735 4 0 66 -66 137 -146z m-4956 -7360 c1114 -116 2236
-685 3755 -1905 303 -243 735 -607 735 -618 0 -12 -277 -254 -434 -379 -1149
-916 -2584 -1461 -4031 -1530 -266 -13 -878 -5 -970 12 -11 2 -56 7 -100 11
-395 35 -872 125 -1271 239 -1027 296 -1945 800 -2748 1510 -80 71 -146 133
-146 137 0 11 432 375 735 618 1516 1218 2641 1789 3750 1904 171 18 554 18
725 1z"/>
</g>
</svg>
